<svg xmlns="http://www.w3.org/2000/svg" version="1.1" xmlns:xlink="http://www.w3.org/1999/xlink" width="352" height="393"><svg width="352" height="393" viewBox="0 0 352 393" fill="none" xmlns="http://www.w3.org/2000/svg">
<g clip-path="url(#clip0_773_682)">
<path d="M122.692 358.321C122.546 358.321 121.099 368.337 120.891 369.451C119.973 374.216 119.066 379.497 120.719 384.269C124.874 396.28 143.6 394.974 146.205 382.606C146.865 379.47 146.509 376.222 146.343 373.053C146.241 371.121 144.992 358.321 142.271 358.321H122.692Z" fill="#F8AF61"></path>
<path d="M218.962 358.707C218.817 358.707 217.369 368.722 217.154 369.837C216.237 374.602 215.329 379.883 216.983 384.655C221.137 396.665 239.865 395.359 242.468 382.992C243.129 379.856 242.773 376.608 242.607 373.439C242.505 371.507 241.255 358.707 238.535 358.707H218.962Z" fill="#F8AF61"></path>
<path d="M62.4058 345.04C62.4058 345.04 38.958 340.403 25.2637 346.618C25.2637 346.618 10.3873 351.847 3.1961 357.767C-3.99513 363.687 3.1961 366.349 3.1961 366.349C3.1961 366.349 14.1289 373.48 36.9876 362.304C36.9876 362.304 38.0281 362.176 37.5239 362.83C37.0197 363.484 28.9423 369.868 30.0639 375.721C31.1854 381.575 52.1315 374.077 52.1315 374.077C52.1315 374.077 63.692 366.975 69.0774 353.097L62.4058 345.04Z" fill="#564C4B"></path>
<path d="M297.676 232.176C292.166 233.544 292.84 231.724 288.59 235.433C278.837 243.947 277.683 256.158 281.813 268.019C286.278 280.833 297.951 287.683 309.629 294.07C315.405 297.23 321.099 303.109 327.318 305.287C330.415 306.371 334.722 307.932 337.937 308.606C341.153 309.28 344.391 308.426 345.95 307.554C347.43 306.724 349.405 305.504 350.744 304.334C352.106 303.14 352.102 301.114 351.902 299.46C351.359 294.9 350.678 290.26 349.099 285.93C342.434 267.656 331.964 251.759 316.784 240.274C307.918 233.566 306.701 238.23 303.514 235.426C302.754 234.746 298.674 231.929 297.676 232.176Z" fill="#564C4B"></path>
<path d="M124.934 86.932C120.818 86.6744 115.493 82.889 112.145 80.8231C107.386 77.8877 103.128 74.1371 99.7785 69.6497C96.9681 65.8849 92.5191 59.2943 95.3385 54.5326C96.7237 52.1923 99.5109 51.1529 102.027 50.5862C105.146 49.8842 108.444 49.5738 111.63 49.8842C116.273 50.335 120.553 52.2026 124.501 54.6189C128.042 56.7891 131.889 59.4707 134.451 62.8105C134.503 62.8783 134.555 62.9479 134.605 63.0191C131.724 58.9452 128.726 55.3234 126.542 50.7317C121.603 40.3518 120.229 29.0522 121.743 17.7076C122.535 11.7686 124.146 4.94226 129.709 1.74675C136.513 -2.16359 144.757 1.23156 150.985 4.70013C167.896 14.1231 178.4 31.699 175.391 51.2456C175.535 50.3067 177.004 48.9143 177.56 48.2098C179.473 45.7751 181.635 43.5472 184.01 41.5625C190.906 35.8219 199.887 32.826 208.883 33.8564C225.155 35.7201 208.396 62.3095 203.885 68.6863C201.913 71.4748 199.552 74.016 197.016 76.2958C195.557 77.6095 194.022 78.8396 192.441 80.0065C191.333 80.8244 188.251 83.7751 186.903 83.7417C200.106 84.0431 213.625 86.7968 226.166 90.7728C237.265 94.2916 248.055 99.204 257.445 106.159C262.348 109.791 266.849 113.984 270.683 118.742C279.087 129.174 286.02 142.478 291.022 154.883C292.767 159.213 294.445 163.526 295.76 168.012C297.398 173.597 298.595 179.302 299.343 185.074C299.74 188.15 300.007 191.241 300.141 194.348C300.251 196.861 299.692 200.029 300.437 202.422C300.673 203.18 301.069 203.877 301.466 204.566C312.113 223.251 320.265 243.426 323.758 264.746C328.149 291.548 324.025 319.339 307.603 341.51C304.167 346.131 300.337 350.444 296.155 354.4C296.155 354.4 272.641 382.361 180.791 381.626C88.9408 380.891 65.0468 355.137 65.0468 355.137C65.0468 355.137 31.2463 331.96 32.7152 304.004C34.184 276.048 34.3075 269.542 34.7976 268.807C34.0773 269.89 29.4148 265.041 29.1279 264.509C24.6262 256.19 30.6019 243.339 33.8959 235.787C36.1224 230.682 40.3875 225.13 41.5631 219.716C42.6846 214.546 41.2286 207.814 41.0486 202.51C40.8261 195.988 40.7373 189.458 40.9071 182.933C41.2441 169.988 42.5792 156.986 46.0185 144.472C47.4642 139.216 49.382 133.894 52.6773 129.494C63.4493 115.108 79.6016 104.071 95.4015 95.9274C104.123 91.4297 114.831 86.2816 124.934 86.932Z" fill="#FFFCFC"></path>
<path d="M190.615 261.707L197.046 253.061L195.515 251.528H177.389L175.858 253.061L182.289 261.707L173.227 304.017L186.453 317.015L199.679 304.017L190.615 261.707Z" fill="#AA1F1B"></path>
<path d="M199.621 172.747C198.948 179.856 200.268 186.615 202.479 193.582C206.46 206.121 218.6 214.598 231.442 216.747C240.06 218.19 246.595 218.529 255.403 218.42C262.998 218.324 270.767 216.896 277.299 213.109L277.87 212.771C289.795 205.507 297.373 189.827 298.65 176.023L301.637 176.3C300.279 190.973 292.14 207.972 278.804 215.705C271.899 219.708 263.866 221.225 256.184 221.406L255.442 221.42C246.501 221.53 239.782 221.185 230.946 219.706C217.493 217.455 204.436 208.634 199.832 195.137L199.619 194.49C197.346 187.328 195.909 180.133 196.635 172.464L199.621 172.747Z" fill="#D0EAF3"></path>
<path d="M170.595 172.464C171.321 180.133 169.884 187.328 167.609 194.49C163.209 208.348 149.955 217.421 136.282 219.701L136.283 219.702C127.448 221.181 120.73 221.526 111.789 221.416C103.885 221.316 95.554 219.833 88.4268 215.701C75.0902 207.969 66.9512 190.969 65.5938 176.296L68.5801 176.02C69.8774 190.043 77.6776 206 89.9316 213.105C96.4638 216.892 104.232 218.32 111.826 218.416L113.452 218.431C121.46 218.478 127.709 218.095 135.789 216.743C148.633 214.601 160.769 206.118 164.75 193.582C166.962 186.616 168.282 179.856 167.608 172.747L170.595 172.464Z" fill="#D0EAF3"></path>
<path d="M321.435 149.142C321.415 148.717 321.228 147.142 320.904 146.839C320.531 146.491 318.322 146.665 317.707 146.621C316.449 146.532 315.19 146.441 313.932 146.339C311.321 146.129 308.712 145.886 306.111 145.566C301.185 144.971 296.428 143.634 291.549 142.89C281.334 141.344 270.623 141.294 260.312 141.124C249.849 140.952 238.992 141.444 228.482 142.744C218.505 143.98 206.686 146 198.405 152.227C198.13 152.433 197.861 152.647 197.597 152.871C195.965 154.249 194.815 155.857 193.933 157.806C193.178 159.47 192.68 161.262 192.185 163.024C192.054 163.49 191.925 163.958 191.799 164.426L191.389 164.39C191.03 164.359 190.671 164.329 190.312 164.3C189.808 164.259 189.304 164.22 188.8 164.184C188.228 164.142 187.657 164.104 187.084 164.068C186.522 164.035 185.958 164.004 185.395 163.982C184.313 163.938 183.158 163.942 182.051 163.971C181.649 163.981 181.249 163.998 180.849 164.017C180.416 164.038 179.983 164.063 179.55 164.09C179.118 164.117 178.689 164.147 178.258 164.178C177.863 164.206 177.468 164.237 177.073 164.268L176.101 164.348L175.442 164.405L175.199 164.426C175.071 163.958 174.943 163.49 174.813 163.024C174.318 161.262 173.82 159.47 173.067 157.806C172.183 155.857 171.034 154.249 169.401 152.871C169.144 152.648 168.868 152.434 168.594 152.227C160.312 146 148.495 143.983 138.516 142.744C128.007 141.444 117.15 140.952 106.686 141.124C96.3759 141.294 85.6643 141.341 75.4492 142.89C70.5706 143.631 65.8142 144.971 60.8867 145.566C58.2859 145.881 55.6775 146.124 53.0678 146.339C51.8098 146.441 50.5506 146.532 49.2914 146.621C48.6766 146.665 46.4682 146.492 46.0939 146.839C45.7698 147.142 45.5794 148.717 45.5627 149.142C45.519 150.054 45.8302 150.881 46.2662 151.664C47.375 153.66 48.4387 155.642 49.4934 157.667C50.1159 158.865 51.3224 161.7 52.9764 161.67C52.997 161.67 58.1213 161.579 59.477 161.67C60.8326 161.762 61.1876 163.142 61.1876 163.142C62.5459 168.348 59.3869 181.248 67.566 181.651C75.7978 182.057 74.1771 172.058 74.307 166.638C74.307 166.638 74.0061 159.464 81.4983 155.877C88.9905 152.29 121.217 151.277 137.374 152.565C142.019 152.935 146.763 153.301 151.21 154.84C156.563 156.697 161.404 160.602 162.958 166.328C163.635 168.817 163.961 171.445 164.105 174.021C164.142 174.665 164.309 176.082 164.805 176.468C166.893 178.097 170.162 177.435 172.394 176.563C172.538 176.518 172.67 176.441 172.78 176.338C173.069 176.027 172.971 174.873 173.009 174.45C173.045 174.051 173.08 173.654 173.114 173.258C173.132 173.171 173.155 173.085 173.184 173.001C173.276 172.742 173.416 172.503 173.596 172.295C173.792 172.072 174.016 171.875 174.263 171.711C174.537 171.528 174.827 171.369 175.13 171.237C175.461 171.092 175.801 170.967 176.147 170.863C176.515 170.751 176.888 170.656 177.262 170.575C177.636 170.494 178.034 170.422 178.42 170.363C178.806 170.304 179.192 170.256 179.577 170.216C179.943 170.177 180.308 170.146 180.673 170.122C181.002 170.1 181.331 170.082 181.66 170.069C183.093 170.014 184.54 170.037 185.972 170.121C186.309 170.14 186.648 170.166 186.985 170.195C187.344 170.229 187.701 170.268 188.059 170.314C188.416 170.36 188.791 170.418 189.155 170.484C189.519 170.55 189.874 170.624 190.229 170.714C190.584 170.805 190.908 170.897 191.241 171.015C191.549 171.122 191.849 171.248 192.141 171.393C192.409 171.524 192.664 171.68 192.903 171.859C193.118 172.02 193.311 172.21 193.476 172.422C193.63 172.623 193.747 172.849 193.821 173.091C193.836 173.145 193.851 173.199 193.862 173.253L193.966 174.444C194.004 174.868 193.907 176.022 194.197 176.333C194.307 176.436 194.438 176.513 194.582 176.558C196.814 177.43 200.084 178.092 202.171 176.463C202.669 176.076 202.835 174.653 202.871 174.016C203.015 171.44 203.343 168.812 204.018 166.322C205.572 160.597 210.413 156.692 215.768 154.835C220.208 153.289 224.958 152.93 229.602 152.56C245.761 151.272 277.987 152.285 285.479 155.872C292.971 159.459 292.67 166.633 292.67 166.633C292.799 172.053 291.176 182.051 299.41 181.646C307.585 181.243 304.427 168.343 305.789 163.137C305.789 163.137 306.15 161.758 307.504 161.665C308.859 161.572 313.983 161.665 314.004 161.665C315.658 161.695 316.864 158.86 317.488 157.662C318.541 155.637 319.605 153.655 320.715 151.659C321.168 150.881 321.479 150.054 321.435 149.142Z" fill="#101728"></path>
<path d="M202.467 205.239C202.386 204.853 202.103 204.482 201.88 204.164C201.487 203.611 201.064 203.079 200.613 202.572C198.522 200.143 195.991 198.133 193.153 196.647C191.802 195.932 190.364 195.395 188.875 195.049C186.258 194.48 183.549 194.48 180.932 195.049C179.443 195.395 178.005 195.932 176.654 196.647C173.816 198.133 171.285 200.143 169.194 202.572C168.743 203.079 168.32 203.611 167.927 204.164C167.704 204.482 167.421 204.85 167.34 205.239C167.123 206.298 167.135 207.386 167.69 208.343C167.891 208.69 168.129 209.023 168.499 209.192C169.259 209.54 170.171 209.466 170.97 209.365C171.595 209.285 172.421 208.876 172.728 209.676C172.833 209.956 172.958 210.227 173.101 210.489C173.415 211.027 173.758 211.546 174.13 212.045C174.632 212.747 175.19 213.431 175.892 213.942C177.503 215.113 179.698 215.423 181.634 215.547C183.81 215.667 185.992 215.667 188.168 215.547C190.097 215.418 192.299 215.113 193.91 213.942C194.612 213.427 195.17 212.747 195.672 212.045C196.044 211.546 196.387 211.027 196.701 210.489C196.844 210.227 196.969 209.956 197.074 209.676C197.381 208.876 198.207 209.29 198.832 209.365C199.636 209.466 200.543 209.54 201.303 209.192C201.673 209.023 201.911 208.69 202.112 208.343C202.671 207.381 202.684 206.298 202.467 205.239Z" fill="#F8AF61"></path>
<path d="M37.9809 227.776C43.6403 228.24 50.9588 230.352 55.7474 233.332C66.7381 240.17 69.8328 252.037 67.6565 264.404C65.304 277.769 55.6394 289.359 45.1361 297.54C37.5745 303.43 28.0809 309.547 19.1443 312.983C16.1693 314.127 13.9364 313.555 10.8212 313.221C9.13494 313.041 7.23391 311.908 5.72518 310.965C3.58492 309.628 4.06467 307.616 4.27947 305.426C4.54443 302.722 5.02033 300.043 5.52967 297.379C9.17995 278.27 15.0695 258.918 25.3528 242.277C27.5778 238.659 30.0439 235.195 32.7344 231.909C33.3801 231.127 36.9571 227.692 37.9809 227.776Z" fill="#564C4B"></path>
<path d="M230.876 177.371C230.845 176.666 230.638 175.988 230.129 175.475C228.971 174.302 227.241 173.984 225.652 173.967C223.87 173.949 221.983 174.186 220.37 174.978C218.526 175.879 217.356 177.916 217.311 179.948C217.311 179.991 217.311 180.034 217.311 180.077C217.31 180.839 217.46 181.594 217.751 182.298C218.043 183.002 218.469 183.642 219.008 184.181C219.546 184.72 220.185 185.148 220.888 185.439C221.591 185.731 222.345 185.881 223.106 185.881C226.679 185.881 229.723 182.425 230.634 179.2C230.81 178.607 230.892 177.989 230.876 177.371Z" fill="black"></path>
<path d="M225.805 179.135C226.458 179.135 226.987 178.605 226.987 177.951C226.987 177.298 226.458 176.768 225.805 176.768C225.152 176.768 224.623 177.298 224.623 177.951C224.623 178.605 225.152 179.135 225.805 179.135Z" fill="white"></path>
<path d="M139.025 177.371C139.056 176.666 139.263 175.988 139.772 175.475C140.93 174.302 142.659 173.984 144.25 173.967C146.031 173.949 147.918 174.186 149.531 174.978C151.375 175.879 152.546 177.916 152.591 179.948C152.591 179.991 152.591 180.034 152.591 180.077C152.589 181.615 151.977 183.088 150.891 184.175C149.804 185.261 148.332 185.872 146.796 185.872C143.223 185.872 140.18 182.416 139.268 179.191C139.093 178.601 139.011 177.987 139.025 177.371Z" fill="black"></path>
<path d="M144.098 179.135C144.751 179.135 145.28 178.605 145.28 177.951C145.28 177.298 144.751 176.768 144.098 176.768C143.445 176.768 142.916 177.298 142.916 177.951C142.916 178.605 143.445 179.135 144.098 179.135Z" fill="white"></path>
</g>
<defs>
<clipPath id="SvgjsClipPath1021">
<rect width="352" height="393" fill="white"></rect>
</clipPath>
</defs>
</svg><style>@media (prefers-color-scheme: light) { :root { filter: none; } }
@media (prefers-color-scheme: dark) { :root { filter: none; } }
</style></svg>