<svg width="14" height="16" viewBox="0 0 14 16" fill="none" xmlns="http://www.w3.org/2000/svg">
<path d="M1.95993 13.9903L2.25382 13.5858L1.95993 13.9903ZM1.1764 13.2067L1.58091 12.9128L1.1764 13.2067ZM12.5736 13.2067L12.1691 12.9128L12.5736 13.2067ZM11.7901 13.9903L11.4962 13.5858L11.7901 13.9903ZM11.7901 1.1764L12.084 0.77189L11.7901 1.1764ZM12.5736 1.95993L12.1691 2.25382L12.5736 1.95993ZM1.95993 1.1764L2.25382 1.58091L1.95993 1.1764ZM1.1764 1.95993L1.58091 2.25382L1.1764 1.95993ZM7.68685 3.75501L7.76507 4.24886L7.76507 4.24886L7.68685 3.75501ZM6.57877 3.75501L6.50055 4.24886L6.50055 4.24886L6.57877 3.75501ZM4.04167 9.91667C3.76552 9.91667 3.54167 10.1405 3.54167 10.4167C3.54167 10.6928 3.76552 10.9167 4.04167 10.9167V10.4167V9.91667ZM9.70833 10.9167C9.98448 10.9167 10.2083 10.6928 10.2083 10.4167C10.2083 10.1405 9.98448 9.91667 9.70833 9.91667V10.4167V10.9167ZM5.45833 7.08333C5.18219 7.08333 4.95833 7.30719 4.95833 7.58333C4.95833 7.85948 5.18219 8.08333 5.45833 8.08333V7.58333V7.08333ZM8.29167 8.08333C8.56781 8.08333 8.79167 7.85948 8.79167 7.58333C8.79167 7.30719 8.56781 7.08333 8.29167 7.08333V7.58333V8.08333ZM13.25 6.875H12.75V8.29167H13.25H13.75V6.875H13.25ZM0.5 8.29167H1V6.875H0.5H0V8.29167H0.5ZM6.875 14.6667V14.1667C5.53583 14.1667 4.57162 14.166 3.82442 14.085C3.08657 14.0051 2.61987 13.8517 2.25382 13.5858L1.95993 13.9903L1.66603 14.3948C2.23097 14.8052 2.89377 14.99 3.7167 15.0792C4.53027 15.1674 5.55811 15.1667 6.875 15.1667V14.6667ZM0.5 8.29167H0C0 9.60856 -0.000686306 10.6364 0.0874587 11.45C0.176618 12.2729 0.361443 12.9357 0.77189 13.5006L1.1764 13.2067L1.58091 12.9128C1.31495 12.5468 1.16158 12.0801 1.08164 11.3423C1.00069 10.595 1 9.63083 1 8.29167H0.5ZM1.95993 13.9903L2.25382 13.5858C1.9956 13.3982 1.76852 13.1711 1.58091 12.9128L1.1764 13.2067L0.77189 13.5006C1.02118 13.8437 1.32292 14.1455 1.66603 14.3948L1.95993 13.9903ZM13.25 8.29167H12.75C12.75 9.63083 12.7493 10.595 12.6684 11.3423C12.5884 12.0801 12.435 12.5468 12.1691 12.9128L12.5736 13.2067L12.9781 13.5006C13.3886 12.9357 13.5734 12.2729 13.6625 11.45C13.7507 10.6364 13.75 9.60856 13.75 8.29167H13.25ZM6.875 14.6667V15.1667C8.19189 15.1667 9.21972 15.1674 10.0333 15.0792C10.8562 14.99 11.519 14.8052 12.084 14.3948L11.7901 13.9903L11.4962 13.5858C11.1301 13.8517 10.6634 14.0051 9.92558 14.085C9.17838 14.166 8.21417 14.1667 6.875 14.1667V14.6667ZM12.5736 13.2067L12.1691 12.9128C11.9815 13.1711 11.7544 13.3982 11.4962 13.5858L11.7901 13.9903L12.084 14.3948C12.4271 14.1455 12.7288 13.8437 12.9781 13.5006L12.5736 13.2067ZM13.25 6.875H13.75C13.75 5.55811 13.7507 4.53027 13.6625 3.7167C13.5734 2.89377 13.3886 2.23097 12.9781 1.66603L12.5736 1.95993L12.1691 2.25382C12.435 2.61987 12.5884 3.08657 12.6684 3.82442C12.7493 4.57162 12.75 5.53583 12.75 6.875H13.25ZM11.7901 1.1764L11.4962 1.58091C11.7544 1.76852 11.9815 1.9956 12.1691 2.25382L12.5736 1.95993L12.9781 1.66603C12.7288 1.32292 12.4271 1.02118 12.084 0.77189L11.7901 1.1764ZM0.5 6.875H1C1 5.53583 1.00069 4.57162 1.08164 3.82442C1.16158 3.08657 1.31495 2.61987 1.58091 2.25382L1.1764 1.95993L0.77189 1.66603C0.361443 2.23097 0.176618 2.89377 0.0874587 3.7167C-0.000686306 4.53027 0 5.55811 0 6.875H0.5ZM1.95993 1.1764L1.66603 0.77189C1.32292 1.02118 1.02118 1.32292 0.77189 1.66603L1.1764 1.95993L1.58091 2.25382C1.76852 1.9956 1.9956 1.76852 2.25382 1.58091L1.95993 1.1764ZM7.68685 3.75501L7.60863 3.26117C7.29338 3.3111 6.97224 3.3111 6.65699 3.26117L6.57877 3.75501L6.50055 4.24886C6.91945 4.3152 7.34617 4.3152 7.76507 4.24886L7.68685 3.75501ZM11.437 0.961375L11.0836 0.607695C10.2055 1.48516 9.5639 2.11697 9.00915 2.55385C8.46184 2.98488 8.03908 3.19299 7.60863 3.26117L7.68685 3.75501L7.76507 4.24886C8.42937 4.14364 9.00975 3.82626 9.62785 3.33948C10.2385 2.85856 10.9246 2.18024 11.7904 1.31506L11.437 0.961375ZM6.875 0.5V1C8.05158 1 8.94066 1.00035 9.65049 1.05614C10.3587 1.11179 10.8394 1.21999 11.2119 1.40783L11.437 0.961375L11.6621 0.514925C11.1197 0.241387 10.4884 0.1189 9.72884 0.0592087C8.97092 -0.000352616 8.03648 0 6.875 0V0.5ZM11.437 0.961375L11.2119 1.40783C11.3128 1.4587 11.4069 1.51603 11.4962 1.58091L11.7901 1.1764L12.084 0.77189C11.9503 0.674804 11.8101 0.589557 11.6621 0.514925L11.437 0.961375ZM2.67616 0.808966L2.32261 1.16253C3.23722 2.0771 3.95338 2.79206 4.58424 3.29697C5.22247 3.80779 5.81714 4.14061 6.50055 4.24886L6.57877 3.75501L6.65699 3.26117C6.21418 3.19103 5.7796 2.97285 5.20911 2.51624C4.63124 2.05374 3.9592 1.38487 3.0297 0.455405L2.67616 0.808966ZM6.875 0.5V0C5.85731 0 5.01539 -0.000178289 4.31603 0.0394203C3.61715 0.0789915 3.02523 0.159594 2.51307 0.336311L2.67616 0.808966L2.83924 1.28162C3.22253 1.14937 3.70726 1.07549 4.37256 1.03782C5.03738 1.00018 5.84715 1 6.875 1V0.5ZM2.67616 0.808966L2.51307 0.336311C2.20361 0.443086 1.92373 0.584664 1.66603 0.77189L1.95993 1.1764L2.25382 1.58091C2.42412 1.45718 2.61418 1.35928 2.83924 1.28162L2.67616 0.808966ZM4.04167 10.4167V10.9167H9.70833V10.4167V9.91667H4.04167V10.4167ZM5.45833 7.58333V8.08333H8.29167V7.58333V7.08333H5.45833V7.58333Z" fill="#9D9D9D"/>
</svg>
