<svg width="7" height="16" viewBox="0 0 7 16" fill="none" xmlns="http://www.w3.org/2000/svg">
<path d="M1.59745 0.289746C1.2297 -0.0990325 0.636116 -0.0962076 0.271636 0.296055C-0.092843 0.688318 -0.0901947 1.32148 0.277552 1.71025L2.48126 4.04C3.37563 4.98551 3.98913 5.63624 4.40426 6.18761C4.80751 6.7232 4.94584 7.06722 4.98266 7.37533C5.00578 7.56879 5.00578 7.76454 4.98266 7.95801C4.94584 8.26611 4.80751 8.61013 4.40426 9.14573C3.98913 9.6971 3.37563 10.3478 2.48126 11.2933L0.277552 13.6231C-0.0901947 14.0119 -0.092843 14.645 0.271636 15.0373C0.636116 15.4295 1.2297 15.4324 1.59745 15.0436L3.84086 12.6719C4.68583 11.7786 5.37642 11.0485 5.86618 10.3981C6.37547 9.72162 6.74413 9.03503 6.84261 8.21088C6.88579 7.84951 6.88579 7.48382 6.84261 7.12245C6.74413 6.2983 6.37547 5.61171 5.86618 4.93528C5.37642 4.28478 4.68583 3.55472 3.84086 2.66146L1.59745 0.289746Z" fill="#555555"/>
</svg>
