<svg width="18" height="17" viewBox="0 0 18 17" fill="none" xmlns="http://www.w3.org/2000/svg">
<path d="M16.0545 0.706614C16.0531 0.413216 15.8002 0.176431 15.4895 0.17774C15.1788 0.179049 14.9281 0.417956 14.9295 0.711355L14.9362 2.1179C14.9387 2.66189 14.9397 3.03642 14.911 3.32221C13.4393 1.82447 11.3354 0.886068 9 0.886068C4.5472 0.886068 0.9375 4.29523 0.9375 8.50065C0.9375 8.79405 1.18934 9.0319 1.5 9.0319C1.81066 9.0319 2.0625 8.79405 2.0625 8.50065C2.0625 4.88203 5.16852 1.94857 9 1.94857C11.0621 1.94857 12.9136 2.79765 14.1851 4.14756C14.1482 4.15307 14.1081 4.15811 14.0645 4.16261C13.756 4.19442 13.3482 4.19351 12.7412 4.19095L11.2519 4.18468C10.9412 4.18337 10.6883 4.42015 10.6869 4.71355C10.6855 5.00695 10.9362 5.24586 11.2469 5.24717L12.7686 5.25358C13.3348 5.25598 13.807 5.25798 14.1866 5.21883C14.5848 5.17776 14.9518 5.08596 15.2706 4.85294C15.4078 4.75268 15.5309 4.6364 15.6371 4.50685C15.8838 4.20575 15.981 3.85914 16.0245 3.48306C16.066 3.12452 16.0638 2.67857 16.0613 2.14388L16.0545 0.706614Z" fill="#FCFCFC"/>
<path d="M17.0625 8.50065C17.0625 8.20725 16.8107 7.9694 16.5 7.9694C16.1893 7.9694 15.9375 8.20725 15.9375 8.50065C15.9375 12.1193 12.8315 15.0527 9 15.0527C6.90849 15.0527 5.03358 14.1793 3.7608 12.7957C3.79563 12.7906 3.83322 12.7859 3.87389 12.7817C4.1824 12.7499 4.59017 12.7508 5.19723 12.7534L6.68651 12.7597C6.99717 12.761 7.25013 12.5242 7.25152 12.2308C7.2529 11.9374 7.00219 11.6985 6.69153 11.6972L5.16977 11.6908C4.60362 11.6884 4.1314 11.6864 3.75176 11.7255C3.35357 11.7666 2.98657 11.8584 2.66776 12.0914C2.53058 12.1917 2.40746 12.3079 2.3013 12.4375C2.05458 12.7386 1.95738 13.0852 1.9139 13.4613C1.87244 13.8198 1.87456 14.2658 1.8771 14.8005L1.88389 16.2377C1.88527 16.5311 2.13824 16.7679 2.44889 16.7666C2.75955 16.7653 3.01026 16.5264 3.00888 16.233L3.00223 14.8264C2.99965 14.2787 2.99865 13.9028 3.02793 13.6163C4.50221 15.1505 6.6321 16.1152 9 16.1152C13.4528 16.1152 17.0625 12.7061 17.0625 8.50065Z" fill="#FCFCFC"/>
</svg>
