<svg width="239" height="239" viewBox="0 0 239 239" fill="none" xmlns="http://www.w3.org/2000/svg">
<path d="M79.1807 229.245C85.9608 229.245 92.4632 226.552 97.2575 221.758C102.052 216.963 104.745 210.461 104.745 203.681C104.745 196.901 102.052 190.398 97.2575 185.604C92.4632 180.81 85.9608 178.116 79.1807 178.116C72.4006 178.116 65.8981 180.81 61.1039 185.604C56.3096 190.398 53.6162 196.901 53.6162 203.681C53.6162 210.461 56.3096 216.963 61.1039 221.758C65.8981 226.552 72.4006 229.245 79.1807 229.245ZM194.225 197.288C201.003 197.288 207.503 194.595 212.296 189.802C217.088 185.01 219.781 178.51 219.781 171.732C219.781 164.954 217.088 158.454 212.296 153.661C207.503 148.868 201.003 146.176 194.225 146.176C187.447 146.176 180.947 148.868 176.154 153.661C171.362 158.454 168.669 164.954 168.669 171.732C168.669 178.51 171.362 185.01 176.154 189.802C180.947 194.595 187.447 197.288 194.225 197.288Z" stroke="black" stroke-width="17.0714" stroke-linecap="round" stroke-linejoin="round"/>
<path d="M219.778 171.729V71.52C219.772 70.5416 219.543 69.5775 219.106 68.7021C218.669 67.8267 218.037 67.0634 217.258 66.4711C216.479 65.8789 215.575 65.4735 214.615 65.2862C213.654 65.099 212.664 65.135 211.72 65.3913L160.591 79.5777M219.778 101.429L126.67 127.292M104.75 203.67V151.807M34.2623 113.072V151.79M14.9033 132.431H53.6213M81.2941 44.3423C88.8909 34.0823 93.5685 13.1016 93.5685 13.1016C93.5685 13.1016 98.246 34.0823 105.826 44.3423C113.491 54.6876 137.886 63.7354 137.886 63.7354C137.886 63.7354 113.474 72.7833 105.826 83.1456C98.246 93.3885 93.5685 114.369 93.5685 114.369C93.5685 114.369 88.8909 93.4055 81.2941 83.1285C73.6461 72.8003 49.251 63.7354 49.251 63.7354C49.251 63.7354 73.6461 54.6876 81.2941 44.3423Z" stroke="black" stroke-width="17.0714" stroke-linecap="round" stroke-linejoin="round"/>
</svg>
