<svg width="321" height="63" viewBox="0 0 321 63" fill="none" xmlns="http://www.w3.org/2000/svg">
<path d="M44.2505 26C44.2898 26 44.3284 26.0074 44.3638 26.0215C44.3991 26.0356 44.4303 26.0557 44.4556 26.0801L46.0093 27.5781V27.5791C46.0341 27.6033 46.0526 27.6311 46.0649 27.6602C46.0771 27.689 46.0836 27.719 46.0835 27.749V27.7559C46.0836 27.786 46.0772 27.8168 46.0649 27.8457C46.0529 27.874 46.0352 27.9011 46.0112 27.9248L44.4565 29.4229C44.4314 29.4469 44.4009 29.4676 44.3657 29.4814C44.3306 29.4953 44.2923 29.5021 44.2534 29.502H44.2476C44.2085 29.5022 44.1695 29.4953 44.1343 29.4814C44.0992 29.4676 44.0686 29.4469 44.0435 29.4229C44.0183 29.3988 43.9994 29.3709 43.9868 29.3418C43.9743 29.3128 43.9683 29.2822 43.9683 29.252C43.9683 29.2216 43.9743 29.1912 43.9868 29.1621C43.9994 29.133 44.0182 29.1052 44.0435 29.0811L44.272 28.8682L45.2017 28.002H42.6948C41.743 28.002 40.8264 28.3666 40.1479 29.0205C39.4688 29.6752 39.0835 30.5679 39.0835 31.502C39.0836 32.4359 39.4689 33.3278 40.1479 33.9824C40.8264 34.6364 41.743 35.001 42.6948 35.001H45.1626L44.27 34.1406L44.0454 33.9238C43.9946 33.8749 43.9692 33.812 43.9692 33.751C43.9692 33.6899 43.9946 33.6271 44.0454 33.5781C44.0968 33.5288 44.1704 33.498 44.2505 33.498C44.3306 33.4981 44.4042 33.5287 44.4556 33.5781L46.0093 35.0762V35.0771C46.0341 35.1013 46.0526 35.1291 46.0649 35.1582C46.0772 35.1872 46.0837 35.2178 46.0835 35.248V35.2539C46.0836 35.2841 46.0772 35.3148 46.0649 35.3438C46.0529 35.372 46.0352 35.3992 46.0112 35.4229L44.4565 36.9209C44.4314 36.945 44.4009 36.9656 44.3657 36.9795C44.3306 36.9933 44.2923 37.0002 44.2534 37H44.2476C44.2085 37.0002 44.1695 36.9934 44.1343 36.9795C44.0992 36.9656 44.0686 36.9449 44.0435 36.9209C44.0183 36.8968 43.9994 36.8689 43.9868 36.8398C43.9743 36.8108 43.9683 36.7803 43.9683 36.75C43.9683 36.7197 43.9743 36.6892 43.9868 36.6602C43.9994 36.631 44.0182 36.6032 44.0435 36.5791L44.272 36.3662L45.2017 35.5H42.6948L42.436 35.4922C41.8348 35.4558 41.2483 35.2949 40.7173 35.0195C40.1104 34.7048 39.596 34.2507 39.2183 33.7002L38.8062 33.0996L38.3931 33.7002C38.0153 34.2507 37.5009 34.7048 36.894 35.0195C36.2871 35.3343 35.6077 35.4995 34.9165 35.5H33.3608C33.2817 35.4999 33.2094 35.4697 33.1587 35.4209C33.1086 35.3726 33.0836 35.3111 33.0835 35.251C33.0835 35.1908 33.1085 35.1285 33.1587 35.0801C33.2094 35.0314 33.2817 35.0011 33.3608 35.001H34.9165C35.8683 35.001 36.7849 34.6364 37.4634 33.9824C38.1424 33.3278 38.5277 32.4359 38.5278 31.502C38.5278 30.5679 38.1425 29.6752 37.4634 29.0205C36.7849 28.3666 35.8683 28.002 34.9165 28.002H33.3608C33.2817 28.0018 33.2094 27.9716 33.1587 27.9229C33.1086 27.8746 33.0836 27.813 33.0835 27.7529C33.0835 27.6927 33.1085 27.6304 33.1587 27.582C33.2094 27.5333 33.2817 27.503 33.3608 27.5029H34.9165C35.6077 27.5034 36.2871 27.6687 36.894 27.9834C37.5009 28.2982 38.0153 28.7522 38.3931 29.3027L38.8062 29.9033L39.2183 29.3027C39.596 28.7522 40.1104 28.2982 40.7173 27.9834C41.2482 27.708 41.8348 27.5471 42.436 27.5107L42.6948 27.5029H45.1626L44.27 26.6426L44.0454 26.4248C43.9946 26.3759 43.9693 26.3139 43.9692 26.2529C43.9692 26.1919 43.9946 26.129 44.0454 26.0801C44.0968 26.0308 44.1704 26 44.2505 26Z" stroke="#BAA8ED"/>
<path d="M91.7231 25.3135C91.7231 25.0866 91.6607 24.864 91.5426 24.6702C91.4246 24.4763 91.2556 24.3187 91.0539 24.2144C90.8523 24.1102 90.6259 24.0634 90.3995 24.0792C90.173 24.0949 89.9553 24.1726 89.7701 24.3038L81.1065 30.4448C80.9456 30.5585 80.8141 30.7091 80.7231 30.8839C80.6322 31.0587 80.5842 31.2527 80.5834 31.4497C80.5826 31.6468 80.6288 31.8412 80.7183 32.0168C80.8077 32.1924 80.9379 32.344 81.0978 32.4592L89.7614 38.6917C89.9462 38.825 90.1643 38.9047 90.3915 38.922C90.6187 38.9392 90.8463 38.8935 91.0492 38.7897C91.2521 38.6859 91.4223 38.5282 91.5413 38.3338C91.6602 38.1395 91.7231 37.916 91.7231 37.6882V25.3135Z" fill="#BAA8ED"/>
<path d="M101 25.3135C101 25.0866 100.938 24.864 100.82 24.6702C100.702 24.4763 100.532 24.3187 100.331 24.2144C100.129 24.1102 99.9028 24.0634 99.6764 24.0792C99.4499 24.0949 99.2322 24.1726 99.047 24.3038L90.3834 30.4448C90.2225 30.5585 90.091 30.7091 90 30.8839C89.9091 31.0587 89.8611 31.2527 89.8603 31.4497C89.8595 31.6468 89.9057 31.8412 89.9952 32.0168C90.0846 32.1924 90.2148 32.344 90.3747 32.4592L99.0383 38.6917C99.2231 38.825 99.4412 38.9047 99.6684 38.922C99.8956 38.9392 100.123 38.8935 100.326 38.7897C100.529 38.6859 100.699 38.5282 100.818 38.3338C100.937 38.1395 101 37.916 101 37.6882V25.3135Z" fill="#BAA8ED"/>
<rect x="140" y="10.5" width="42" height="42" rx="21" fill="url(#paint0_linear_364_5674)"/>
<line y1="-1.5" x2="14" y2="-1.5" transform="matrix(0 1 1 0 167 24.5)" stroke="#FCFCFC" stroke-width="3"/>
<line y1="-1.5" x2="14" y2="-1.5" transform="matrix(0 1 1 0 159 24.5)" stroke="#FCFCFC" stroke-width="3"/>
<path d="M230.277 25.3135C230.277 25.0866 230.339 24.864 230.457 24.6702C230.575 24.4763 230.744 24.3187 230.946 24.2144C231.148 24.1102 231.374 24.0634 231.601 24.0792C231.827 24.0949 232.045 24.1726 232.23 24.3038L240.894 30.4448C241.054 30.5585 241.186 30.7091 241.277 30.8839C241.368 31.0587 241.416 31.2527 241.417 31.4497C241.417 31.6468 241.371 31.8412 241.282 32.0168C241.192 32.1924 241.062 32.344 240.902 32.4592L232.239 38.6917C232.054 38.825 231.836 38.9047 231.608 38.922C231.381 38.9392 231.154 38.8935 230.951 38.7897C230.748 38.6859 230.578 38.5282 230.459 38.3338C230.34 38.1395 230.277 37.916 230.277 37.6882V25.3135Z" fill="#BAA8ED"/>
<path d="M221 25.3135C221 25.0866 221.062 24.864 221.18 24.6702C221.298 24.4763 221.468 24.3187 221.669 24.2144C221.871 24.1102 222.097 24.0634 222.324 24.0792C222.55 24.0949 222.768 24.1726 222.953 24.3038L231.617 30.4448C231.778 30.5585 231.909 30.7091 232 30.8839C232.091 31.0587 232.139 31.2527 232.14 31.4497C232.141 31.6468 232.094 31.8412 232.005 32.0168C231.915 32.1924 231.785 32.344 231.625 32.4592L222.962 38.6917C222.777 38.825 222.559 38.9047 222.332 38.922C222.104 38.9392 221.877 38.8935 221.674 38.7897C221.471 38.6859 221.301 38.5282 221.182 38.3338C221.063 38.1395 221 37.916 221 37.6882V25.3135Z" fill="#BAA8ED"/>
<path d="M278.537 34.36H275.417M275.417 34.36C275.417 34.36 278.017 38 281.917 38C285.507 38 288.417 35.4 288.417 32.28M275.417 34.36V38M285.297 28.64H288.417M288.417 28.64C288.417 28.64 285.817 25 281.917 25C278.326 25 275.417 27.6 275.417 30.72M288.417 28.64V25" stroke="#BAA8ED" stroke-width="1.5" stroke-linecap="round" stroke-linejoin="round"/>
<defs>
<linearGradient id="paint0_linear_364_5674" x1="149.52" y1="48.3" x2="174.125" y2="17.0625" gradientUnits="userSpaceOnUse">
<stop stop-color="#7150D0"/>
<stop offset="1" stop-color="#AE92FF"/>
</linearGradient>
</defs>
</svg>
