<svg width="321" height="11" viewBox="0 0 321 11" fill="none" xmlns="http://www.w3.org/2000/svg">
<path d="M4.05469 8V7.59375L5.96875 5.52344C6.69531 4.73438 6.99219 4.33594 7 3.80469C6.99219 3.17969 6.48438 2.75781 5.8125 2.75781C5.09375 2.75781 4.63281 3.22656 4.63281 3.89062H4.10156C4.10156 2.9375 4.83594 2.26562 5.82812 2.26562C6.8125 2.26562 7.51562 2.9375 7.51562 3.80469C7.51562 4.4375 7.22656 4.91406 6.25 5.94531L4.84375 7.46094V7.5H7.6875V8H4.05469ZM8.99531 7.23438C8.76094 7.23438 8.57344 7.04688 8.57344 6.82031C8.57344 6.58594 8.76094 6.39844 8.99531 6.39844C9.22188 6.39844 9.40938 6.58594 9.40938 6.82031C9.40938 7.04688 9.22188 7.23438 8.99531 7.23438ZM8.99531 3.94531C8.76094 3.94531 8.57344 3.75781 8.57344 3.53125C8.57344 3.29688 8.76094 3.10938 8.99531 3.10938C9.22188 3.10938 9.40938 3.29688 9.40938 3.53125C9.40938 3.75781 9.22188 3.94531 8.99531 3.94531ZM12.225 8.07812C11.1391 8.07812 10.35 7.46875 10.3187 6.57812H10.8812C10.9125 7.17969 11.4906 7.57812 12.2172 7.57812C13.0141 7.57812 13.5766 7.11719 13.5844 6.47656C13.5766 5.8125 13.0219 5.34375 12.1078 5.34375H11.7562V4.84375H12.1078C12.85 4.84375 13.3812 4.42969 13.3891 3.78906C13.3812 3.17969 12.9281 2.75781 12.2328 2.75781C11.5687 2.75781 11.0062 3.14844 10.9906 3.75781H10.4516C10.475 2.875 11.2562 2.26562 12.2406 2.26562C13.2719 2.26562 13.9281 2.94531 13.9203 3.76562C13.9281 4.41406 13.5375 4.89062 12.9281 5.0625V5.10156C13.6703 5.23438 14.1312 5.75781 14.1234 6.48438C14.1312 7.39844 13.3187 8.07812 12.225 8.07812ZM14.8609 6.79688V6.34375L17.4391 2.34375H18.1109V6.30469H18.8844V6.79688H18.1109V8H17.5797V6.79688H14.8609ZM15.4781 6.30469H17.5797V3.08594H17.525L15.4781 6.26562V6.30469Z" fill="#C4C4C4"/>
<path d="M28.5 5.5L290.5 5.50002" stroke="url(#paint0_linear_364_5663)" stroke-width="2" stroke-linecap="round"/>
<path d="M28.5 5.5L228.5 5.50002" stroke="#6A00FF" stroke-width="2" stroke-linecap="round"/>
<circle cx="233.5" cy="5.5" r="4" fill="url(#paint1_linear_364_5663)"/>
<line x1="298.75" y1="5.25" x2="301.25" y2="5.25" stroke="#C4C4C4" stroke-width="0.5" stroke-linecap="round"/>
<path d="M304.859 2.34375V8H304.297V2.92188H304.266L302.93 3.80469V3.23438L304.281 2.34375H304.859ZM306.659 7.23438C306.425 7.23438 306.237 7.04688 306.237 6.82031C306.237 6.58594 306.425 6.39844 306.659 6.39844C306.886 6.39844 307.073 6.58594 307.073 6.82031C307.073 7.04688 306.886 7.23438 306.659 7.23438ZM306.659 3.94531C306.425 3.94531 306.237 3.75781 306.237 3.53125C306.237 3.29688 306.425 3.10938 306.659 3.10938C306.886 3.10938 307.073 3.29688 307.073 3.53125C307.073 3.75781 306.886 3.94531 306.659 3.94531ZM309.889 8.07812C308.803 8.07812 308.014 7.46875 307.983 6.57812H308.545C308.577 7.17969 309.155 7.57812 309.881 7.57812C310.678 7.57812 311.241 7.11719 311.248 6.47656C311.241 5.8125 310.686 5.34375 309.772 5.34375H309.42V4.84375H309.772C310.514 4.84375 311.045 4.42969 311.053 3.78906C311.045 3.17969 310.592 2.75781 309.897 2.75781C309.233 2.75781 308.67 3.14844 308.655 3.75781H308.116C308.139 2.875 308.92 2.26562 309.905 2.26562C310.936 2.26562 311.592 2.94531 311.584 3.76562C311.592 4.41406 311.202 4.89062 310.592 5.0625V5.10156C311.334 5.23438 311.795 5.75781 311.787 6.48438C311.795 7.39844 310.983 8.07812 309.889 8.07812ZM312.525 6.79688V6.34375L315.103 2.34375H315.775V6.30469H316.548V6.79688H315.775V8H315.244V6.79688H312.525ZM313.142 6.30469H315.244V3.08594H315.189L313.142 6.26562V6.30469Z" fill="#C4C4C4"/>
<defs>
<linearGradient id="paint0_linear_364_5663" x1="87.8867" y1="6.40001" x2="87.8903" y2="5.19482" gradientUnits="userSpaceOnUse">
<stop stop-color="#7150D0"/>
<stop offset="1" stop-color="#AE92FF"/>
</linearGradient>
<linearGradient id="paint1_linear_364_5663" x1="233.5" y1="1.5" x2="233.5" y2="9.5" gradientUnits="userSpaceOnUse">
<stop stop-color="#D360E5"/>
<stop offset="1" stop-color="#454BF9"/>
</linearGradient>
</defs>
</svg>
