<svg width="41" height="33" viewBox="0 0 41 33" fill="none" xmlns="http://www.w3.org/2000/svg">
<foreignObject x="-22.2754" y="-14.3838" width="67.2473" height="66.7902"><div xmlns="http://www.w3.org/1999/xhtml" style="backdrop-filter:blur(11.14px);clip-path:url(#bgblur_0_188_2918_clip_path);height:100%;width:100%"></div></foreignObject><g filter="url(#filter0_iiii_188_2918)" data-figma-bg-blur-radius="22.2754">
<path d="M0 19.2398C0 12.9724 5.08078 7.8916 11.3482 7.8916H11.5769C17.7181 7.8916 22.6965 12.87 22.6965 19.0112C22.6965 25.1523 17.7181 30.1307 11.5769 30.1307H1.34782C0.603441 30.1307 0 29.5273 0 28.7829V19.2398Z" fill="url(#paint0_linear_188_2918)"/>
</g>
<ellipse cx="14.1286" cy="26.7569" rx="6.37163" ry="6.24324" fill="white"/>
<ellipse cx="23.7952" cy="11.1194" rx="9.88394" ry="9.68478" fill="url(#paint1_linear_188_2918)"/>
<foreignObject x="-15.8822" y="-23.2036" width="80.0858" height="79.4072"><div xmlns="http://www.w3.org/1999/xhtml" style="backdrop-filter:blur(11.6px);clip-path:url(#bgblur_1_188_2918_clip_path);height:100%;width:100%"></div></foreignObject><g filter="url(#filter1_iiii_188_2918)" data-figma-bg-blur-radius="23.2036">
<path d="M7.32141 16.8393C7.32141 7.53921 14.8606 0 24.1607 0H24.5C33.6127 0 41 7.3873 41 16.5C41 25.6127 33.6127 33 24.5 33H9.32141C8.21684 33 7.32141 32.1046 7.32141 31V16.8393Z" fill="black" fill-opacity="0.2"/>
<path d="M24.1603 0.116211H24.5001C33.5487 0.116272 40.8839 7.45141 40.8839 16.5C40.8839 25.5486 33.5487 32.8837 24.5001 32.8838H9.32141C8.28092 32.8838 7.43762 32.0405 7.43762 31V16.8389C7.43786 7.6032 14.9246 0.116444 24.1603 0.116211Z" stroke="url(#paint2_linear_188_2918)" stroke-width="0.232036"/>
</g>
<ellipse cx="18.6697" cy="16.8589" rx="1.83036" ry="1.79348" fill="url(#paint3_linear_188_2918)"/>
<ellipse cx="23.7946" cy="16.8589" rx="1.83036" ry="1.79348" fill="url(#paint4_linear_188_2918)"/>
<ellipse cx="28.5533" cy="16.8589" rx="1.46429" ry="1.79348" fill="url(#paint5_linear_188_2918)"/>
<defs>
<filter id="filter0_iiii_188_2918" x="-22.2754" y="-14.3838" width="67.2473" height="66.7902" filterUnits="userSpaceOnUse" color-interpolation-filters="sRGB">
<feFlood flood-opacity="0" result="BackgroundImageFix"/>
<feBlend mode="normal" in="SourceGraphic" in2="BackgroundImageFix" result="shape"/>
<feColorMatrix in="SourceAlpha" type="matrix" values="0 0 0 0 0 0 0 0 0 0 0 0 0 0 0 0 0 0 127 0" result="hardAlpha"/>
<feOffset dy="-3.07106"/>
<feGaussianBlur stdDeviation="5.11844"/>
<feComposite in2="hardAlpha" operator="arithmetic" k2="-1" k3="1"/>
<feColorMatrix type="matrix" values="0 0 0 0 1 0 0 0 0 1 0 0 0 0 1 0 0 0 0.15 0"/>
<feBlend mode="normal" in2="shape" result="effect1_innerShadow_188_2918"/>
<feColorMatrix in="SourceAlpha" type="matrix" values="0 0 0 0 0 0 0 0 0 0 0 0 0 0 0 0 0 0 127 0" result="hardAlpha"/>
<feOffset dy="-5.11844"/>
<feGaussianBlur stdDeviation="9.24134"/>
<feComposite in2="hardAlpha" operator="arithmetic" k2="-1" k3="1"/>
<feColorMatrix type="matrix" values="0 0 0 0 1 0 0 0 0 1 0 0 0 0 1 0 0 0 0.15 0"/>
<feBlend mode="normal" in2="effect1_innerShadow_188_2918" result="effect2_innerShadow_188_2918"/>
<feColorMatrix in="SourceAlpha" type="matrix" values="0 0 0 0 0 0 0 0 0 0 0 0 0 0 0 0 0 0 127 0" result="hardAlpha"/>
<feOffset dy="12.2843"/>
<feGaussianBlur stdDeviation="6.25181"/>
<feComposite in2="hardAlpha" operator="arithmetic" k2="-1" k3="1"/>
<feColorMatrix type="matrix" values="0 0 0 0 1 0 0 0 0 1 0 0 0 0 1 0 0 0 0.1 0"/>
<feBlend mode="normal" in2="effect2_innerShadow_188_2918" result="effect3_innerShadow_188_2918"/>
<feColorMatrix in="SourceAlpha" type="matrix" values="0 0 0 0 0 0 0 0 0 0 0 0 0 0 0 0 0 0 127 0" result="hardAlpha"/>
<feOffset dy="3.01476"/>
<feGaussianBlur stdDeviation="1.56295"/>
<feComposite in2="hardAlpha" operator="arithmetic" k2="-1" k3="1"/>
<feColorMatrix type="matrix" values="0 0 0 0 1 0 0 0 0 1 0 0 0 0 1 0 0 0 0.15 0"/>
<feBlend mode="normal" in2="effect3_innerShadow_188_2918" result="effect4_innerShadow_188_2918"/>
</filter>
<clipPath id="bgblur_0_188_2918_clip_path" transform="translate(22.2754 14.3838)"><path d="M0 19.2398C0 12.9724 5.08078 7.8916 11.3482 7.8916H11.5769C17.7181 7.8916 22.6965 12.87 22.6965 19.0112C22.6965 25.1523 17.7181 30.1307 11.5769 30.1307H1.34782C0.603441 30.1307 0 29.5273 0 28.7829V19.2398Z"/>
</clipPath><filter id="filter1_iiii_188_2918" x="-15.8822" y="-23.2036" width="80.0858" height="79.4072" filterUnits="userSpaceOnUse" color-interpolation-filters="sRGB">
<feFlood flood-opacity="0" result="BackgroundImageFix"/>
<feBlend mode="normal" in="SourceGraphic" in2="BackgroundImageFix" result="shape"/>
<feColorMatrix in="SourceAlpha" type="matrix" values="0 0 0 0 0 0 0 0 0 0 0 0 0 0 0 0 0 0 127 0" result="hardAlpha"/>
<feOffset dy="-3.07106"/>
<feGaussianBlur stdDeviation="5.11844"/>
<feComposite in2="hardAlpha" operator="arithmetic" k2="-1" k3="1"/>
<feColorMatrix type="matrix" values="0 0 0 0 1 0 0 0 0 1 0 0 0 0 1 0 0 0 0.15 0"/>
<feBlend mode="normal" in2="shape" result="effect1_innerShadow_188_2918"/>
<feColorMatrix in="SourceAlpha" type="matrix" values="0 0 0 0 0 0 0 0 0 0 0 0 0 0 0 0 0 0 127 0" result="hardAlpha"/>
<feOffset dy="-5.11844"/>
<feGaussianBlur stdDeviation="9.24134"/>
<feComposite in2="hardAlpha" operator="arithmetic" k2="-1" k3="1"/>
<feColorMatrix type="matrix" values="0 0 0 0 1 0 0 0 0 1 0 0 0 0 1 0 0 0 0.15 0"/>
<feBlend mode="normal" in2="effect1_innerShadow_188_2918" result="effect2_innerShadow_188_2918"/>
<feColorMatrix in="SourceAlpha" type="matrix" values="0 0 0 0 0 0 0 0 0 0 0 0 0 0 0 0 0 0 127 0" result="hardAlpha"/>
<feOffset dy="12.2843"/>
<feGaussianBlur stdDeviation="6.25181"/>
<feComposite in2="hardAlpha" operator="arithmetic" k2="-1" k3="1"/>
<feColorMatrix type="matrix" values="0 0 0 0 1 0 0 0 0 1 0 0 0 0 1 0 0 0 0.1 0"/>
<feBlend mode="normal" in2="effect2_innerShadow_188_2918" result="effect3_innerShadow_188_2918"/>
<feColorMatrix in="SourceAlpha" type="matrix" values="0 0 0 0 0 0 0 0 0 0 0 0 0 0 0 0 0 0 127 0" result="hardAlpha"/>
<feOffset dy="3.01476"/>
<feGaussianBlur stdDeviation="1.56295"/>
<feComposite in2="hardAlpha" operator="arithmetic" k2="-1" k3="1"/>
<feColorMatrix type="matrix" values="0 0 0 0 1 0 0 0 0 1 0 0 0 0 1 0 0 0 0.15 0"/>
<feBlend mode="normal" in2="effect3_innerShadow_188_2918" result="effect4_innerShadow_188_2918"/>
</filter>
<clipPath id="bgblur_1_188_2918_clip_path" transform="translate(15.8822 23.2036)"><path d="M7.32141 16.8393C7.32141 7.53921 14.8606 0 24.1607 0H24.5C33.6127 0 41 7.3873 41 16.5C41 25.6127 33.6127 33 24.5 33H9.32141C8.21684 33 7.32141 32.1046 7.32141 31V16.8393Z"/>
</clipPath><linearGradient id="paint0_linear_188_2918" x1="11.3482" y1="7.8916" x2="11.3482" y2="30.1307" gradientUnits="userSpaceOnUse">
<stop stop-color="#D360E5"/>
<stop offset="1" stop-color="#454BF9"/>
</linearGradient>
<linearGradient id="paint1_linear_188_2918" x1="15.7193" y1="1.43457" x2="21.6847" y2="26.388" gradientUnits="userSpaceOnUse">
<stop stop-color="#D360E5"/>
<stop offset="1" stop-color="#3849FB"/>
</linearGradient>
<linearGradient id="paint2_linear_188_2918" x1="24.1607" y1="0" x2="24.1607" y2="33" gradientUnits="userSpaceOnUse">
<stop stop-color="#E9E9E9" stop-opacity="0.6"/>
<stop offset="1" stop-color="white" stop-opacity="0.4"/>
</linearGradient>
<linearGradient id="paint3_linear_188_2918" x1="17.2868" y1="15.5038" x2="19.7918" y2="18.3444" gradientUnits="userSpaceOnUse">
<stop stop-color="white" stop-opacity="0.7"/>
<stop offset="1" stop-color="white" stop-opacity="0.2"/>
</linearGradient>
<linearGradient id="paint4_linear_188_2918" x1="22.4117" y1="15.5038" x2="24.9167" y2="18.3444" gradientUnits="userSpaceOnUse">
<stop stop-color="white" stop-opacity="0.7"/>
<stop offset="1" stop-color="white" stop-opacity="0.2"/>
</linearGradient>
<linearGradient id="paint5_linear_188_2918" x1="27.4469" y1="15.5038" x2="29.9598" y2="17.7834" gradientUnits="userSpaceOnUse">
<stop stop-color="white" stop-opacity="0.7"/>
<stop offset="1" stop-color="white" stop-opacity="0.2"/>
</linearGradient>
</defs>
</svg>
