<svg width="54" height="47" viewBox="0 0 54 47" fill="none" xmlns="http://www.w3.org/2000/svg">
<g opacity="0.5" filter="url(#filter0_f_188_2907)">
<path d="M20.7763 17.7539C17.5323 17.7539 14.8503 20.3284 14.8503 23.5135C14.8503 25.1186 15.4378 26.6087 16.4066 27.8717C17.4654 29.2648 18.7818 30.4787 20.2719 31.4315C20.6441 31.6683 20.9501 31.6516 21.2892 31.4315C22.7709 30.4787 24.0872 29.2648 25.1552 27.8717C26.1233 26.6087 26.7115 25.1186 26.7115 23.5135C26.7115 20.3284 24.0295 17.7539 20.7763 17.7539Z" fill="#004FFF"/>
</g>
<foreignObject x="-12.4789" y="-10.5821" width="66.4733" height="70.5109"><div xmlns="http://www.w3.org/1999/xhtml" style="backdrop-filter:blur(11.14px);clip-path:url(#bgblur_0_188_2907_clip_path);height:100%;width:100%"></div></foreignObject><g filter="url(#filter1_iiii_188_2907)" data-figma-bg-blur-radius="22.2754">
<path d="M20.7492 11.6934C14.7534 11.6934 9.79651 16.5192 9.79651 22.4897C9.79651 25.4984 10.8823 28.2916 12.6729 30.6591C14.6299 33.2705 17.0628 35.5459 19.8169 37.3318C20.5048 37.7757 21.0704 37.7446 21.6972 37.3318C24.4357 35.5459 26.8686 33.2705 28.8425 30.6591C30.6318 28.2916 31.7189 25.4984 31.7189 22.4897C31.7189 16.5192 26.762 11.6934 20.7492 11.6934Z" fill="url(#paint0_linear_188_2907)"/>
</g>
<ellipse cx="33.9928" cy="32.2287" rx="5.69335" ry="5.73061" fill="white"/>
<ellipse cx="34.9414" cy="8.35079" rx="8.06557" ry="8.11837" fill="url(#paint1_linear_188_2907)"/>
<foreignObject x="-5.5742" y="-23.2036" width="79.8057" height="85.872"><div xmlns="http://www.w3.org/1999/xhtml" style="backdrop-filter:blur(11.6px);clip-path:url(#bgblur_1_188_2907_clip_path);height:100%;width:100%"></div></foreignObject><g filter="url(#filter2_iiii_188_2907)" data-figma-bg-blur-radius="23.2036">
<path d="M34.316 0.232422C25.3083 0.232422 17.8615 7.48231 17.8615 16.452C17.8615 20.972 19.4926 25.1683 22.1826 28.725C25.1227 32.6483 28.7777 36.0665 32.9153 38.7497C33.9487 39.4165 34.7985 39.3697 35.7401 38.7497C39.8542 36.0665 43.5092 32.6483 46.4747 28.725C49.1627 25.1683 50.7959 20.972 50.7959 16.452C50.7959 7.48231 43.349 0.232422 34.316 0.232422Z" fill="black" fill-opacity="0.2"/>
<path d="M34.3156 0.116211C43.4106 0.116211 50.9122 7.41623 50.9122 16.4521C50.9122 21.0009 49.2683 25.2213 46.5675 28.7949C43.7798 32.483 40.3843 35.7261 36.5714 38.334L35.8038 38.8467C35.3209 39.1647 34.8514 39.3424 34.3634 39.3486C33.8752 39.3548 33.3826 39.1886 32.8527 38.8467H32.8517C28.9621 36.3243 25.4975 33.1544 22.6505 29.5264L22.09 28.7949C19.3871 25.2212 17.7453 21.0009 17.7452 16.4521C17.7452 7.41649 25.246 0.116432 34.3156 0.116211Z" stroke="url(#paint2_linear_188_2907)" stroke-width="0.232036" stroke-linecap="round" stroke-linejoin="round"/>
</g>
<foreignObject x="14.8515" y="-2.2288" width="38.7565" height="38.3502"><div xmlns="http://www.w3.org/1999/xhtml" style="backdrop-filter:blur(6.96px);clip-path:url(#bgblur_2_188_2907_clip_path);height:100%;width:100%"></div></foreignObject><g filter="url(#filter3_d_188_2907)" data-figma-bg-blur-radius="13.9222">
<mask id="path-7-inside-1_188_2907" fill="white">
<path d="M34.2171 22.1995C31.2189 22.1995 28.7737 19.9064 28.7737 16.9909C28.7737 14.0981 31.2189 11.6934 34.2171 11.6934C37.2172 11.6934 39.6859 14.0981 39.6859 16.9909C39.6859 19.9064 37.2172 22.1995 34.2171 22.1995Z"/>
</mask>
<path d="M34.2171 22.1995C31.2189 22.1995 28.7737 19.9064 28.7737 16.9909C28.7737 14.0981 31.2189 11.6934 34.2171 11.6934C37.2172 11.6934 39.6859 14.0981 39.6859 16.9909C39.6859 19.9064 37.2172 22.1995 34.2171 22.1995Z" fill="url(#paint3_linear_188_2907)"/>
<path d="M34.2171 22.1995V22.0139C31.3125 22.0139 28.9593 19.7952 28.9593 16.9909H28.7737H28.5881C28.5881 20.0176 31.1253 22.3851 34.2171 22.3851V22.1995ZM28.7737 16.9909H28.9593C28.9593 14.2047 31.3172 11.879 34.2171 11.879V11.6934V11.5077C31.1206 11.5077 28.5881 13.9914 28.5881 16.9909H28.7737ZM34.2171 11.6934V11.879C37.12 11.879 39.5003 14.2058 39.5003 16.9909H39.6859H39.8716C39.8716 13.9903 37.3144 11.5077 34.2171 11.5077V11.6934ZM39.6859 16.9909H39.5003C39.5003 19.7942 37.1247 22.0139 34.2171 22.0139V22.1995V22.3851C37.3097 22.3851 39.8716 20.0187 39.8716 16.9909H39.6859Z" fill="url(#paint4_linear_188_2907)" fill-opacity="0.5" mask="url(#path-7-inside-1_188_2907)"/>
</g>
<defs>
<filter id="filter0_f_188_2907" x="4.29153e-05" y="2.90361" width="41.5617" height="43.5492" filterUnits="userSpaceOnUse" color-interpolation-filters="sRGB">
<feFlood flood-opacity="0" result="BackgroundImageFix"/>
<feBlend mode="normal" in="SourceGraphic" in2="BackgroundImageFix" result="shape"/>
<feGaussianBlur stdDeviation="7.42515" result="effect1_foregroundBlur_188_2907"/>
</filter>
<filter id="filter1_iiii_188_2907" x="-12.4789" y="-10.5821" width="66.4733" height="70.5109" filterUnits="userSpaceOnUse" color-interpolation-filters="sRGB">
<feFlood flood-opacity="0" result="BackgroundImageFix"/>
<feBlend mode="normal" in="SourceGraphic" in2="BackgroundImageFix" result="shape"/>
<feColorMatrix in="SourceAlpha" type="matrix" values="0 0 0 0 0 0 0 0 0 0 0 0 0 0 0 0 0 0 127 0" result="hardAlpha"/>
<feOffset dy="-3.07106"/>
<feGaussianBlur stdDeviation="5.11844"/>
<feComposite in2="hardAlpha" operator="arithmetic" k2="-1" k3="1"/>
<feColorMatrix type="matrix" values="0 0 0 0 1 0 0 0 0 1 0 0 0 0 1 0 0 0 0.15 0"/>
<feBlend mode="normal" in2="shape" result="effect1_innerShadow_188_2907"/>
<feColorMatrix in="SourceAlpha" type="matrix" values="0 0 0 0 0 0 0 0 0 0 0 0 0 0 0 0 0 0 127 0" result="hardAlpha"/>
<feOffset dy="-5.11844"/>
<feGaussianBlur stdDeviation="9.24134"/>
<feComposite in2="hardAlpha" operator="arithmetic" k2="-1" k3="1"/>
<feColorMatrix type="matrix" values="0 0 0 0 1 0 0 0 0 1 0 0 0 0 1 0 0 0 0.15 0"/>
<feBlend mode="normal" in2="effect1_innerShadow_188_2907" result="effect2_innerShadow_188_2907"/>
<feColorMatrix in="SourceAlpha" type="matrix" values="0 0 0 0 0 0 0 0 0 0 0 0 0 0 0 0 0 0 127 0" result="hardAlpha"/>
<feOffset dy="12.2843"/>
<feGaussianBlur stdDeviation="6.25181"/>
<feComposite in2="hardAlpha" operator="arithmetic" k2="-1" k3="1"/>
<feColorMatrix type="matrix" values="0 0 0 0 1 0 0 0 0 1 0 0 0 0 1 0 0 0 0.1 0"/>
<feBlend mode="normal" in2="effect2_innerShadow_188_2907" result="effect3_innerShadow_188_2907"/>
<feColorMatrix in="SourceAlpha" type="matrix" values="0 0 0 0 0 0 0 0 0 0 0 0 0 0 0 0 0 0 127 0" result="hardAlpha"/>
<feOffset dy="3.01476"/>
<feGaussianBlur stdDeviation="1.56295"/>
<feComposite in2="hardAlpha" operator="arithmetic" k2="-1" k3="1"/>
<feColorMatrix type="matrix" values="0 0 0 0 1 0 0 0 0 1 0 0 0 0 1 0 0 0 0.15 0"/>
<feBlend mode="normal" in2="effect3_innerShadow_188_2907" result="effect4_innerShadow_188_2907"/>
</filter>
<clipPath id="bgblur_0_188_2907_clip_path" transform="translate(12.4789 10.5821)"><path d="M20.7492 11.6934C14.7534 11.6934 9.79651 16.5192 9.79651 22.4897C9.79651 25.4984 10.8823 28.2916 12.6729 30.6591C14.6299 33.2705 17.0628 35.5459 19.8169 37.3318C20.5048 37.7757 21.0704 37.7446 21.6972 37.3318C24.4357 35.5459 26.8686 33.2705 28.8425 30.6591C30.6318 28.2916 31.7189 25.4984 31.7189 22.4897C31.7189 16.5192 26.762 11.6934 20.7492 11.6934Z"/>
</clipPath><filter id="filter2_iiii_188_2907" x="-5.5742" y="-23.2036" width="79.8057" height="85.872" filterUnits="userSpaceOnUse" color-interpolation-filters="sRGB">
<feFlood flood-opacity="0" result="BackgroundImageFix"/>
<feBlend mode="normal" in="SourceGraphic" in2="BackgroundImageFix" result="shape"/>
<feColorMatrix in="SourceAlpha" type="matrix" values="0 0 0 0 0 0 0 0 0 0 0 0 0 0 0 0 0 0 127 0" result="hardAlpha"/>
<feOffset dy="-3.07106"/>
<feGaussianBlur stdDeviation="5.11844"/>
<feComposite in2="hardAlpha" operator="arithmetic" k2="-1" k3="1"/>
<feColorMatrix type="matrix" values="0 0 0 0 1 0 0 0 0 1 0 0 0 0 1 0 0 0 0.15 0"/>
<feBlend mode="normal" in2="shape" result="effect1_innerShadow_188_2907"/>
<feColorMatrix in="SourceAlpha" type="matrix" values="0 0 0 0 0 0 0 0 0 0 0 0 0 0 0 0 0 0 127 0" result="hardAlpha"/>
<feOffset dy="-5.11844"/>
<feGaussianBlur stdDeviation="9.24134"/>
<feComposite in2="hardAlpha" operator="arithmetic" k2="-1" k3="1"/>
<feColorMatrix type="matrix" values="0 0 0 0 1 0 0 0 0 1 0 0 0 0 1 0 0 0 0.15 0"/>
<feBlend mode="normal" in2="effect1_innerShadow_188_2907" result="effect2_innerShadow_188_2907"/>
<feColorMatrix in="SourceAlpha" type="matrix" values="0 0 0 0 0 0 0 0 0 0 0 0 0 0 0 0 0 0 127 0" result="hardAlpha"/>
<feOffset dy="12.2843"/>
<feGaussianBlur stdDeviation="6.25181"/>
<feComposite in2="hardAlpha" operator="arithmetic" k2="-1" k3="1"/>
<feColorMatrix type="matrix" values="0 0 0 0 1 0 0 0 0 1 0 0 0 0 1 0 0 0 0.1 0"/>
<feBlend mode="normal" in2="effect2_innerShadow_188_2907" result="effect3_innerShadow_188_2907"/>
<feColorMatrix in="SourceAlpha" type="matrix" values="0 0 0 0 0 0 0 0 0 0 0 0 0 0 0 0 0 0 127 0" result="hardAlpha"/>
<feOffset dy="3.01476"/>
<feGaussianBlur stdDeviation="1.56295"/>
<feComposite in2="hardAlpha" operator="arithmetic" k2="-1" k3="1"/>
<feColorMatrix type="matrix" values="0 0 0 0 1 0 0 0 0 1 0 0 0 0 1 0 0 0 0.15 0"/>
<feBlend mode="normal" in2="effect3_innerShadow_188_2907" result="effect4_innerShadow_188_2907"/>
</filter>
<clipPath id="bgblur_1_188_2907_clip_path" transform="translate(5.5742 23.2036)"><path d="M34.316 0.232422C25.3083 0.232422 17.8615 7.48231 17.8615 16.452C17.8615 20.972 19.4926 25.1683 22.1826 28.725C25.1227 32.6483 28.7777 36.0665 32.9153 38.7497C33.9487 39.4165 34.7985 39.3697 35.7401 38.7497C39.8542 36.0665 43.5092 32.6483 46.4747 28.725C49.1627 25.1683 50.7959 20.972 50.7959 16.452C50.7959 7.48231 43.349 0.232422 34.316 0.232422Z"/>
</clipPath><filter id="filter3_d_188_2907" x="14.8515" y="-2.2288" width="38.7565" height="38.3502" filterUnits="userSpaceOnUse" color-interpolation-filters="sRGB">
<feFlood flood-opacity="0" result="BackgroundImageFix"/>
<feColorMatrix in="SourceAlpha" type="matrix" values="0 0 0 0 0 0 0 0 0 0 0 0 0 0 0 0 0 0 127 0" result="hardAlpha"/>
<feOffset dx="4.64072" dy="4.64072"/>
<feGaussianBlur stdDeviation="4.64072"/>
<feColorMatrix type="matrix" values="0 0 0 0 0.482353 0 0 0 0 0.341176 0 0 0 0 0.894118 0 0 0 0.4 0"/>
<feBlend mode="normal" in2="BackgroundImageFix" result="effect1_dropShadow_188_2907"/>
<feBlend mode="normal" in="SourceGraphic" in2="effect1_dropShadow_188_2907" result="shape"/>
</filter>
<clipPath id="bgblur_2_188_2907_clip_path" transform="translate(-14.8515 2.2288)"><path d="M34.2171 22.1995C31.2189 22.1995 28.7737 19.9064 28.7737 16.9909C28.7737 14.0981 31.2189 11.6934 34.2171 11.6934C37.2172 11.6934 39.6859 14.0981 39.6859 16.9909C39.6859 19.9064 37.2172 22.1995 34.2171 22.1995Z"/>
</clipPath><linearGradient id="paint0_linear_188_2907" x1="11.8016" y1="11.6934" x2="21.2291" y2="44.3245" gradientUnits="userSpaceOnUse">
<stop stop-color="#D360E5"/>
<stop offset="1" stop-color="#3849FB"/>
</linearGradient>
<linearGradient id="paint1_linear_188_2907" x1="28.3513" y1="0.232422" x2="33.4728" y2="21.0876" gradientUnits="userSpaceOnUse">
<stop stop-color="#D360E5"/>
<stop offset="1" stop-color="#3849FB"/>
</linearGradient>
<linearGradient id="paint2_linear_188_2907" x1="34.3287" y1="0.232422" x2="34.3287" y2="39.2324" gradientUnits="userSpaceOnUse">
<stop stop-color="#E9E9E9" stop-opacity="0.6"/>
<stop offset="1" stop-color="white" stop-opacity="0.4"/>
</linearGradient>
<linearGradient id="paint3_linear_188_2907" x1="38.9123" y1="13.5906" x2="26.7581" y2="14.0022" gradientUnits="userSpaceOnUse">
<stop stop-color="white"/>
<stop offset="1" stop-color="white" stop-opacity="0.2"/>
</linearGradient>
<linearGradient id="paint4_linear_188_2907" x1="29.9492" y1="15.2177" x2="39.2152" y2="15.2708" gradientUnits="userSpaceOnUse">
<stop stop-color="white"/>
<stop offset="1" stop-color="white" stop-opacity="0"/>
</linearGradient>
</defs>
</svg>
