<svg width="36" height="46" viewBox="0 0 36 46" fill="none" xmlns="http://www.w3.org/2000/svg">
<g clip-path="url(#clip0_188_2898)">
<foreignObject x="-14.2679" y="-8.08599" width="69.312" height="74.3058"><div xmlns="http://www.w3.org/1999/xhtml" style="backdrop-filter:blur(11.14px);clip-path:url(#bgblur_1_188_2898_clip_path);height:100%;width:100%"></div></foreignObject><g filter="url(#filter0_iiii_188_2898)" data-figma-bg-blur-radius="22.2754">
<path d="M31.1471 26.0518L12.9647 14.6777C10.7719 13.306 8.00757 14.9874 8.00757 17.6928V40.441C8.00757 43.1465 10.7719 44.8278 12.9647 43.4561L31.1471 32.082C33.3092 30.7295 33.3092 27.4044 31.1471 26.0518Z" fill="url(#paint0_linear_188_2898)"/>
</g>
<path d="M28.5792 21.0097L10.3968 32.3838C8.20401 33.7555 5.4397 32.0742 5.4397 29.3687V6.6205C5.4397 3.91507 8.20401 2.23372 10.3968 3.60543L28.5792 14.9795C30.7413 16.3321 30.7413 19.6572 28.5792 21.0097Z" fill="url(#paint1_linear_188_2898)"/>
<ellipse cx="25.0285" cy="19.8368" rx="6.60296" ry="6.6122" fill="white"/>
<foreignObject x="-20.7269" y="-23.2036" width="77.677" height="86.08"><div xmlns="http://www.w3.org/1999/xhtml" style="backdrop-filter:blur(11.6px);clip-path:url(#bgblur_2_188_2898_clip_path);height:100%;width:100%"></div></foreignObject><g filter="url(#filter1_iiii_188_2898)" data-figma-bg-blur-radius="23.2036">
<path d="M31.4762 15.0191L9.41662 0.651021C6.34672 -1.17792 2.47668 1.06388 2.47668 4.67111V35.0021C2.47668 38.6093 6.34672 40.8511 9.41662 39.0222L31.4762 23.8567C34.5031 22.0533 34.5031 16.8225 31.4762 15.0191Z" fill="black" fill-opacity="0.2"/>
<path d="M2.5929 4.6709C2.59305 1.1512 6.36727 -1.03053 9.35754 0.750977V0.75L31.4132 15.1162L31.4171 15.1191C32.8863 15.9946 33.6299 17.7087 33.63 19.4375C33.63 21.0585 32.9763 22.6669 31.6837 23.583L31.4171 23.7568L31.4103 23.7607L9.35168 38.9258C6.36223 40.7013 2.5929 38.5196 2.5929 35.002V4.6709Z" stroke="url(#paint2_linear_188_2898)" stroke-width="0.232036"/>
</g>
<path d="M21.4229 18.5169L13.2061 13.5389C12.2152 12.9385 10.9659 13.6744 10.9659 14.8585V24.8144C10.9659 25.9985 12.2152 26.7343 13.2061 26.134L21.4229 21.156C22.4 20.5641 22.4 19.1088 21.4229 18.5169Z" fill="url(#paint3_linear_188_2898)"/>
</g>
<defs>
<filter id="filter0_iiii_188_2898" x="-14.2679" y="-8.08599" width="69.312" height="74.3058" filterUnits="userSpaceOnUse" color-interpolation-filters="sRGB">
<feFlood flood-opacity="0" result="BackgroundImageFix"/>
<feBlend mode="normal" in="SourceGraphic" in2="BackgroundImageFix" result="shape"/>
<feColorMatrix in="SourceAlpha" type="matrix" values="0 0 0 0 0 0 0 0 0 0 0 0 0 0 0 0 0 0 127 0" result="hardAlpha"/>
<feOffset dy="-3.07106"/>
<feGaussianBlur stdDeviation="5.11844"/>
<feComposite in2="hardAlpha" operator="arithmetic" k2="-1" k3="1"/>
<feColorMatrix type="matrix" values="0 0 0 0 1 0 0 0 0 1 0 0 0 0 1 0 0 0 0.15 0"/>
<feBlend mode="normal" in2="shape" result="effect1_innerShadow_188_2898"/>
<feColorMatrix in="SourceAlpha" type="matrix" values="0 0 0 0 0 0 0 0 0 0 0 0 0 0 0 0 0 0 127 0" result="hardAlpha"/>
<feOffset dy="-5.11844"/>
<feGaussianBlur stdDeviation="9.24134"/>
<feComposite in2="hardAlpha" operator="arithmetic" k2="-1" k3="1"/>
<feColorMatrix type="matrix" values="0 0 0 0 1 0 0 0 0 1 0 0 0 0 1 0 0 0 0.15 0"/>
<feBlend mode="normal" in2="effect1_innerShadow_188_2898" result="effect2_innerShadow_188_2898"/>
<feColorMatrix in="SourceAlpha" type="matrix" values="0 0 0 0 0 0 0 0 0 0 0 0 0 0 0 0 0 0 127 0" result="hardAlpha"/>
<feOffset dy="12.2843"/>
<feGaussianBlur stdDeviation="6.25181"/>
<feComposite in2="hardAlpha" operator="arithmetic" k2="-1" k3="1"/>
<feColorMatrix type="matrix" values="0 0 0 0 1 0 0 0 0 1 0 0 0 0 1 0 0 0 0.1 0"/>
<feBlend mode="normal" in2="effect2_innerShadow_188_2898" result="effect3_innerShadow_188_2898"/>
<feColorMatrix in="SourceAlpha" type="matrix" values="0 0 0 0 0 0 0 0 0 0 0 0 0 0 0 0 0 0 127 0" result="hardAlpha"/>
<feOffset dy="3.01476"/>
<feGaussianBlur stdDeviation="1.56295"/>
<feComposite in2="hardAlpha" operator="arithmetic" k2="-1" k3="1"/>
<feColorMatrix type="matrix" values="0 0 0 0 1 0 0 0 0 1 0 0 0 0 1 0 0 0 0.15 0"/>
<feBlend mode="normal" in2="effect3_innerShadow_188_2898" result="effect4_innerShadow_188_2898"/>
</filter>
<clipPath id="bgblur_1_188_2898_clip_path" transform="translate(14.2679 8.08599)"><path d="M31.1471 26.0518L12.9647 14.6777C10.7719 13.306 8.00757 14.9874 8.00757 17.6928V40.441C8.00757 43.1465 10.7719 44.8278 12.9647 43.4561L31.1471 32.082C33.3092 30.7295 33.3092 27.4044 31.1471 26.0518Z"/>
</clipPath><filter id="filter1_iiii_188_2898" x="-20.7269" y="-23.2036" width="77.677" height="86.08" filterUnits="userSpaceOnUse" color-interpolation-filters="sRGB">
<feFlood flood-opacity="0" result="BackgroundImageFix"/>
<feBlend mode="normal" in="SourceGraphic" in2="BackgroundImageFix" result="shape"/>
<feColorMatrix in="SourceAlpha" type="matrix" values="0 0 0 0 0 0 0 0 0 0 0 0 0 0 0 0 0 0 127 0" result="hardAlpha"/>
<feOffset dy="-3.07106"/>
<feGaussianBlur stdDeviation="5.11844"/>
<feComposite in2="hardAlpha" operator="arithmetic" k2="-1" k3="1"/>
<feColorMatrix type="matrix" values="0 0 0 0 1 0 0 0 0 1 0 0 0 0 1 0 0 0 0.15 0"/>
<feBlend mode="normal" in2="shape" result="effect1_innerShadow_188_2898"/>
<feColorMatrix in="SourceAlpha" type="matrix" values="0 0 0 0 0 0 0 0 0 0 0 0 0 0 0 0 0 0 127 0" result="hardAlpha"/>
<feOffset dy="-5.11844"/>
<feGaussianBlur stdDeviation="9.24134"/>
<feComposite in2="hardAlpha" operator="arithmetic" k2="-1" k3="1"/>
<feColorMatrix type="matrix" values="0 0 0 0 1 0 0 0 0 1 0 0 0 0 1 0 0 0 0.15 0"/>
<feBlend mode="normal" in2="effect1_innerShadow_188_2898" result="effect2_innerShadow_188_2898"/>
<feColorMatrix in="SourceAlpha" type="matrix" values="0 0 0 0 0 0 0 0 0 0 0 0 0 0 0 0 0 0 127 0" result="hardAlpha"/>
<feOffset dy="12.2843"/>
<feGaussianBlur stdDeviation="6.25181"/>
<feComposite in2="hardAlpha" operator="arithmetic" k2="-1" k3="1"/>
<feColorMatrix type="matrix" values="0 0 0 0 1 0 0 0 0 1 0 0 0 0 1 0 0 0 0.1 0"/>
<feBlend mode="normal" in2="effect2_innerShadow_188_2898" result="effect3_innerShadow_188_2898"/>
<feColorMatrix in="SourceAlpha" type="matrix" values="0 0 0 0 0 0 0 0 0 0 0 0 0 0 0 0 0 0 127 0" result="hardAlpha"/>
<feOffset dy="3.01476"/>
<feGaussianBlur stdDeviation="1.56295"/>
<feComposite in2="hardAlpha" operator="arithmetic" k2="-1" k3="1"/>
<feColorMatrix type="matrix" values="0 0 0 0 1 0 0 0 0 1 0 0 0 0 1 0 0 0 0.15 0"/>
<feBlend mode="normal" in2="effect3_innerShadow_188_2898" result="effect4_innerShadow_188_2898"/>
</filter>
<clipPath id="bgblur_2_188_2898_clip_path" transform="translate(20.7269 23.2036)"><path d="M31.4762 15.0191L9.41662 0.651021C6.34672 -1.17792 2.47668 1.06388 2.47668 4.67111V35.0021C2.47668 38.6093 6.34672 40.8511 9.41662 39.0222L31.4762 23.8567C34.5031 22.0533 34.5031 16.8225 31.4762 15.0191Z"/>
</clipPath><linearGradient id="paint0_linear_188_2898" x1="20.3881" y1="14.1895" x2="20.3881" y2="43.9444" gradientUnits="userSpaceOnUse">
<stop stop-color="#D360E5"/>
<stop offset="1" stop-color="#454BF9"/>
</linearGradient>
<linearGradient id="paint1_linear_188_2898" x1="17.8202" y1="32.8721" x2="17.8202" y2="3.11716" gradientUnits="userSpaceOnUse">
<stop stop-color="#D360E5"/>
<stop offset="1" stop-color="#454BF9"/>
</linearGradient>
<linearGradient id="paint2_linear_188_2898" x1="18.1115" y1="0" x2="18.1115" y2="39.6732" gradientUnits="userSpaceOnUse">
<stop stop-color="#E9E9E9" stop-opacity="0.6"/>
<stop offset="1" stop-color="white" stop-opacity="0.4"/>
</linearGradient>
<linearGradient id="paint3_linear_188_2898" x1="21.3623" y1="15.6768" x2="8.89456" y2="16.0261" gradientUnits="userSpaceOnUse">
<stop stop-color="white"/>
<stop offset="1" stop-color="white" stop-opacity="0.2"/>
</linearGradient>
<clipPath id="clip0_188_2898">
<rect width="35.2695" height="45.479" fill="white"/>
</clipPath>
</defs>
</svg>
