<svg width="33" height="33" viewBox="0 0 33 33" fill="none" xmlns="http://www.w3.org/2000/svg">
<path d="M16.5 2.97296C20.9057 2.97296 21.4276 2.98979 23.1674 3.06917C24.7761 3.14253 25.6498 3.41133 26.2312 3.63729C27.0014 3.93661 27.5511 4.29416 28.1284 4.87151C28.7058 5.44893 29.0634 5.99857 29.3627 6.76875C29.5887 7.35016 29.8575 8.22382 29.9308 9.83255C30.0102 11.5724 30.027 12.0943 30.027 16.4999C30.027 20.9056 30.0102 21.4275 29.9308 23.1673C29.8575 24.7761 29.5887 25.6497 29.3627 26.2311C29.0634 27.0013 28.7058 27.551 28.1285 28.1283C27.5511 28.7057 27.0014 29.0633 26.2312 29.3626C25.6498 29.5886 24.7761 29.8574 23.1674 29.9307C21.4278 30.0101 20.906 30.0269 16.5 30.0269C12.094 30.0269 11.5722 30.0101 9.83258 29.9307C8.22385 29.8574 7.35019 29.5886 6.76877 29.3626C5.99859 29.0633 5.44894 28.7057 4.87159 28.1283C4.29424 27.551 3.93662 27.0013 3.6373 26.2311C3.41134 25.6497 3.14254 24.7761 3.06918 23.1673C2.9898 21.4275 2.97297 20.9056 2.97297 16.4999C2.97297 12.0943 2.9898 11.5724 3.06918 9.83255C3.14254 8.22382 3.41134 7.35016 3.6373 6.76875C3.93662 5.99857 4.29417 5.44893 4.87159 4.87157C5.44894 4.29416 5.99859 3.93661 6.76877 3.63729C7.35019 3.41133 8.22385 3.14253 9.83258 3.06917C11.5724 2.98979 12.0943 2.97296 16.5 2.97296ZM16.5 0C12.0189 0 11.457 0.018994 9.69707 0.0992929C7.94084 0.179395 6.74139 0.458345 5.69187 0.866193C4.60685 1.28786 3.68669 1.85205 2.76934 2.76933C1.85205 3.68667 1.28786 4.60684 0.866261 5.69185C0.458347 6.74137 0.179396 7.94081 0.0992932 9.69704C0.0189941 11.4569 0 12.0188 0 16.4999C0 20.9811 0.0189941 21.543 0.0992932 23.3028C0.179396 25.0591 0.458347 26.2585 0.866261 27.308C1.28786 28.3931 1.85205 29.3132 2.76934 30.2306C3.68669 31.1478 4.60685 31.712 5.69187 32.1336C6.74139 32.5415 7.94084 32.8205 9.69707 32.9006C11.457 32.9809 12.0189 32.9999 16.5 32.9999C20.9811 32.9999 21.543 32.9809 23.3029 32.9006C25.0592 32.8205 26.2586 32.5415 27.3081 32.1336C28.3931 31.712 29.3133 31.1478 30.2307 30.2306C31.1479 29.3132 31.7121 28.3931 32.1338 27.308C32.5417 26.2585 32.8206 25.0591 32.9007 23.3028C32.981 21.543 33 20.9811 33 16.4999C33 12.0188 32.981 11.4569 32.9007 9.69704C32.8206 7.94081 32.5417 6.74137 32.1338 5.69185C31.7121 4.60684 31.1479 3.68667 30.2307 2.76933C29.3133 1.85205 28.3931 1.28786 27.3081 0.866193C26.2586 0.458345 25.0592 0.179395 23.3029 0.0992929C21.543 0.018994 20.9811 0 16.5 0Z" fill="url(#paint0_linear_364_5480)"/>
<path d="M16.5067 8.03516C11.8271 8.03516 8.03369 11.8286 8.03369 16.5081C8.03369 21.1876 11.8271 24.981 16.5067 24.981C21.1862 24.981 24.9796 21.1876 24.9796 16.5081C24.9796 11.8286 21.1862 8.03516 16.5067 8.03516ZM16.5067 22.0081C13.4691 22.0081 11.0067 19.5457 11.0067 16.5081C11.0067 13.4705 13.4691 11.0081 16.5067 11.0081C19.5442 11.0081 22.0067 13.4705 22.0067 16.5081C22.0067 19.5457 19.5442 22.0081 16.5067 22.0081Z" fill="url(#paint1_linear_364_5480)"/>
<defs>
<linearGradient id="paint0_linear_364_5480" x1="16.5" y1="0" x2="16.5" y2="32.9999" gradientUnits="userSpaceOnUse">
<stop stop-color="#BC94FF"/>
<stop offset="1" stop-color="#9F66FF"/>
</linearGradient>
<linearGradient id="paint1_linear_364_5480" x1="16.5067" y1="8.03516" x2="16.5067" y2="24.981" gradientUnits="userSpaceOnUse">
<stop stop-color="#BC94FF"/>
<stop offset="1" stop-color="#9F66FF"/>
</linearGradient>
</defs>
</svg>
