<svg width="38" height="27" viewBox="0 0 38 27" fill="none" xmlns="http://www.w3.org/2000/svg">
<path fill-rule="evenodd" clip-rule="evenodd" d="M35.9282 2.03747C36.5182 2.62754 36.9434 3.36189 37.1614 4.1674C38.4165 9.21948 38.1265 17.1985 37.1858 22.4455C36.9678 23.251 36.5426 23.9854 35.9525 24.5755C35.3625 25.1655 34.6281 25.5907 33.8226 25.8087C30.8737 26.6129 19.0051 26.6129 19.0051 26.6129C19.0051 26.6129 7.13657 26.6129 4.1877 25.8087C3.38219 25.5907 2.64783 25.1655 2.05776 24.5755C1.46769 23.9854 1.0425 23.251 0.824526 22.4455C-0.437881 17.4154 -0.0918145 9.43151 0.800158 4.19178C1.01813 3.38627 1.44332 2.6519 2.03339 2.06184C2.62345 1.47177 3.35781 1.04657 4.16333 0.828613C7.11219 0.0243649 18.9808 0 18.9808 0C18.9808 0 30.8494 0 33.7982 0.804234C34.6037 1.02221 35.3381 1.4474 35.9282 2.03747ZM25.0491 13.3065L15.2033 19.0092V7.60368L25.0491 13.3065Z" fill="url(#paint0_linear_364_5488)"/>
<defs>
<linearGradient id="paint0_linear_364_5488" x1="19" y1="0" x2="19" y2="26.6129" gradientUnits="userSpaceOnUse">
<stop stop-color="#BC94FF"/>
<stop offset="1" stop-color="#9F66FF"/>
</linearGradient>
</defs>
</svg>
